<mxfile host="app.diagrams.net" modified="2020-03-12T18:02:24.083Z" agent="Mozilla/5.0 (Windows NT 10.0; Win64; x64) AppleWebKit/537.36 (KHTML, like Gecko) Chrome/80.0.3987.132 Safari/537.36" etag="SC2a63fza-POjAu-qiif" version="12.8.4" type="github">
  <diagram id="b_00G4UEC7pUPce2fINj" name="Page-1">
    <mxGraphModel dx="1339" dy="1868" grid="1" gridSize="10" guides="1" tooltips="1" connect="1" arrows="1" fold="1" page="1" pageScale="1" pageWidth="827" pageHeight="1169" math="0" shadow="0">
      <root>
        <mxCell id="0" />
        <mxCell id="1" parent="0" />
        <mxCell id="QGDpQxxPmlvVJ3huevaa-10" value="" style="group" parent="1" vertex="1" connectable="0">
          <mxGeometry x="130" y="-460" width="543" height="372" as="geometry" />
        </mxCell>
        <mxCell id="QGDpQxxPmlvVJ3huevaa-1" value="" style="verticalLabelPosition=bottom;html=1;verticalAlign=top;strokeWidth=1;align=center;outlineConnect=0;dashed=0;outlineConnect=0;shape=mxgraph.aws3d.application_server;fillColor=#ECECEC;strokeColor=#5E5E5E;aspect=fixed;" parent="QGDpQxxPmlvVJ3huevaa-10" vertex="1">
          <mxGeometry width="123" height="124" as="geometry" />
        </mxCell>
        <mxCell id="QGDpQxxPmlvVJ3huevaa-2" value="" style="verticalLabelPosition=bottom;html=1;verticalAlign=top;strokeWidth=1;align=center;outlineConnect=0;dashed=0;outlineConnect=0;shape=mxgraph.aws3d.application_server;fillColor=#ECECEC;strokeColor=#5E5E5E;aspect=fixed;" parent="QGDpQxxPmlvVJ3huevaa-10" vertex="1">
          <mxGeometry x="70" y="40" width="123" height="124" as="geometry" />
        </mxCell>
        <mxCell id="QGDpQxxPmlvVJ3huevaa-3" value="" style="verticalLabelPosition=bottom;html=1;verticalAlign=top;strokeWidth=1;align=center;outlineConnect=0;dashed=0;outlineConnect=0;shape=mxgraph.aws3d.application_server;fillColor=#ECECEC;strokeColor=#5E5E5E;aspect=fixed;" parent="QGDpQxxPmlvVJ3huevaa-10" vertex="1">
          <mxGeometry x="140" y="80" width="123" height="124" as="geometry" />
        </mxCell>
        <mxCell id="QGDpQxxPmlvVJ3huevaa-4" value="" style="verticalLabelPosition=bottom;html=1;verticalAlign=top;strokeWidth=1;align=center;outlineConnect=0;dashed=0;outlineConnect=0;shape=mxgraph.aws3d.application_server;fillColor=#ECECEC;strokeColor=#5E5E5E;aspect=fixed;" parent="QGDpQxxPmlvVJ3huevaa-10" vertex="1">
          <mxGeometry x="210" y="124" width="123" height="124" as="geometry" />
        </mxCell>
        <mxCell id="QGDpQxxPmlvVJ3huevaa-5" value="" style="verticalLabelPosition=bottom;html=1;verticalAlign=top;strokeWidth=1;align=center;outlineConnect=0;dashed=0;outlineConnect=0;shape=mxgraph.aws3d.application_server;fillColor=#ECECEC;strokeColor=#5E5E5E;aspect=fixed;" parent="QGDpQxxPmlvVJ3huevaa-10" vertex="1">
          <mxGeometry x="280" y="164" width="123" height="124" as="geometry" />
        </mxCell>
        <mxCell id="QGDpQxxPmlvVJ3huevaa-8" value="" style="verticalLabelPosition=bottom;html=1;verticalAlign=top;strokeWidth=1;align=center;outlineConnect=0;dashed=0;outlineConnect=0;shape=mxgraph.aws3d.application_server;fillColor=#ECECEC;strokeColor=#5E5E5E;aspect=fixed;" parent="QGDpQxxPmlvVJ3huevaa-10" vertex="1">
          <mxGeometry x="350" y="204" width="123" height="124" as="geometry" />
        </mxCell>
        <mxCell id="QGDpQxxPmlvVJ3huevaa-9" value="" style="verticalLabelPosition=bottom;html=1;verticalAlign=top;strokeWidth=1;align=center;outlineConnect=0;dashed=0;outlineConnect=0;shape=mxgraph.aws3d.application_server;fillColor=#ECECEC;strokeColor=#5E5E5E;aspect=fixed;" parent="QGDpQxxPmlvVJ3huevaa-10" vertex="1">
          <mxGeometry x="420" y="248" width="123" height="124" as="geometry" />
        </mxCell>
        <mxCell id="QGDpQxxPmlvVJ3huevaa-12" value="" style="verticalLabelPosition=bottom;html=1;verticalAlign=top;strokeWidth=1;align=center;outlineConnect=0;dashed=0;outlineConnect=0;shape=mxgraph.aws3d.application_server;fillColor=#ECECEC;strokeColor=#5E5E5E;aspect=fixed;" parent="1" vertex="1">
          <mxGeometry x="130" y="-20" width="123" height="124" as="geometry" />
        </mxCell>
        <mxCell id="QGDpQxxPmlvVJ3huevaa-13" value="" style="verticalLabelPosition=bottom;html=1;verticalAlign=top;strokeWidth=1;align=center;outlineConnect=0;dashed=0;outlineConnect=0;shape=mxgraph.aws3d.application_server;fillColor=#CCFFFF;strokeColor=#5E5E5E;aspect=fixed;" parent="1" vertex="1">
          <mxGeometry x="200" y="20" width="123" height="124" as="geometry" />
        </mxCell>
        <mxCell id="QGDpQxxPmlvVJ3huevaa-14" value="" style="verticalLabelPosition=bottom;html=1;verticalAlign=top;strokeWidth=1;align=center;outlineConnect=0;dashed=0;outlineConnect=0;shape=mxgraph.aws3d.application_server;fillColor=#CCFFFF;strokeColor=#5E5E5E;aspect=fixed;" parent="1" vertex="1">
          <mxGeometry x="270" y="60" width="123" height="124" as="geometry" />
        </mxCell>
        <mxCell id="QGDpQxxPmlvVJ3huevaa-15" value="" style="verticalLabelPosition=bottom;html=1;verticalAlign=top;strokeWidth=1;align=center;outlineConnect=0;dashed=0;outlineConnect=0;shape=mxgraph.aws3d.application_server;fillColor=#CCFFFF;strokeColor=#5E5E5E;aspect=fixed;" parent="1" vertex="1">
          <mxGeometry x="340" y="104" width="123" height="124" as="geometry" />
        </mxCell>
        <mxCell id="QGDpQxxPmlvVJ3huevaa-16" value="" style="verticalLabelPosition=bottom;html=1;verticalAlign=top;strokeWidth=1;align=center;outlineConnect=0;dashed=0;outlineConnect=0;shape=mxgraph.aws3d.application_server;fillColor=#ECECEC;strokeColor=#5E5E5E;aspect=fixed;" parent="1" vertex="1">
          <mxGeometry x="410" y="144" width="123" height="124" as="geometry" />
        </mxCell>
        <mxCell id="QGDpQxxPmlvVJ3huevaa-17" value="" style="verticalLabelPosition=bottom;html=1;verticalAlign=top;strokeWidth=1;align=center;outlineConnect=0;dashed=0;outlineConnect=0;shape=mxgraph.aws3d.application_server;fillColor=#ECECEC;strokeColor=#5E5E5E;aspect=fixed;" parent="1" vertex="1">
          <mxGeometry x="480" y="184" width="123" height="124" as="geometry" />
        </mxCell>
        <mxCell id="QGDpQxxPmlvVJ3huevaa-18" value="" style="verticalLabelPosition=bottom;html=1;verticalAlign=top;strokeWidth=1;align=center;outlineConnect=0;dashed=0;outlineConnect=0;shape=mxgraph.aws3d.application_server;fillColor=#ECECEC;strokeColor=#5E5E5E;aspect=fixed;" parent="1" vertex="1">
          <mxGeometry x="550" y="228" width="123" height="124" as="geometry" />
        </mxCell>
        <mxCell id="j39FNthzy7H2qUvWydjF-2" value="" style="verticalLabelPosition=bottom;html=1;verticalAlign=top;strokeWidth=1;align=center;outlineConnect=0;dashed=0;outlineConnect=0;shape=mxgraph.aws3d.application_server;fillColor=#67AB9F;strokeColor=#5E5E5E;aspect=fixed;" vertex="1" parent="1">
          <mxGeometry x="130" y="-1120" width="123" height="124" as="geometry" />
        </mxCell>
        <mxCell id="j39FNthzy7H2qUvWydjF-3" value="" style="verticalLabelPosition=bottom;html=1;verticalAlign=top;strokeWidth=1;align=center;outlineConnect=0;dashed=0;outlineConnect=0;shape=mxgraph.aws3d.application_server;fillColor=#67AB9F;strokeColor=#5E5E5E;aspect=fixed;" vertex="1" parent="1">
          <mxGeometry x="200" y="-1080" width="123" height="124" as="geometry" />
        </mxCell>
        <mxCell id="j39FNthzy7H2qUvWydjF-4" value="" style="verticalLabelPosition=bottom;html=1;verticalAlign=top;strokeWidth=1;align=center;outlineConnect=0;dashed=0;outlineConnect=0;shape=mxgraph.aws3d.application_server;fillColor=#CCFFFF;strokeColor=#5E5E5E;aspect=fixed;" vertex="1" parent="1">
          <mxGeometry x="270" y="-1040" width="123" height="124" as="geometry" />
        </mxCell>
        <mxCell id="j39FNthzy7H2qUvWydjF-5" value="" style="verticalLabelPosition=bottom;html=1;verticalAlign=top;strokeWidth=1;align=center;outlineConnect=0;dashed=0;outlineConnect=0;shape=mxgraph.aws3d.application_server;fillColor=#CCFFFF;strokeColor=#5E5E5E;aspect=fixed;" vertex="1" parent="1">
          <mxGeometry x="340" y="-996" width="123" height="124" as="geometry" />
        </mxCell>
        <mxCell id="j39FNthzy7H2qUvWydjF-9" value="&lt;b&gt;apache&lt;/b&gt;" style="text;html=1;strokeColor=none;fillColor=none;align=center;verticalAlign=middle;whiteSpace=wrap;rounded=0;fontSize=16;" vertex="1" parent="1">
          <mxGeometry x="90" y="-1020" width="40" height="20" as="geometry" />
        </mxCell>
        <mxCell id="j39FNthzy7H2qUvWydjF-10" value="&lt;b&gt;tomcat&lt;/b&gt;" style="text;html=1;strokeColor=none;fillColor=none;align=center;verticalAlign=middle;whiteSpace=wrap;rounded=0;fontSize=16;" vertex="1" parent="1">
          <mxGeometry x="100" y="-1000" width="40" height="20" as="geometry" />
        </mxCell>
        <mxCell id="j39FNthzy7H2qUvWydjF-11" value="&lt;b&gt;pgPool&lt;/b&gt;" style="text;html=1;strokeColor=none;fillColor=none;align=center;verticalAlign=middle;whiteSpace=wrap;rounded=0;fontSize=16;" vertex="1" parent="1">
          <mxGeometry x="250" y="-930" width="40" height="20" as="geometry" />
        </mxCell>
        <mxCell id="j39FNthzy7H2qUvWydjF-12" value="&lt;b&gt;postgres&lt;/b&gt;" style="text;html=1;strokeColor=none;fillColor=none;align=center;verticalAlign=middle;whiteSpace=wrap;rounded=0;fontSize=16;" vertex="1" parent="1">
          <mxGeometry x="260" y="-910" width="40" height="20" as="geometry" />
        </mxCell>
      </root>
    </mxGraphModel>
  </diagram>
</mxfile>
